<svg width="257" height="71" viewBox="0 0 257 71" fill="none" xmlns="http://www.w3.org/2000/svg">
<g clip-path="url(#clip0_2118_55)">
<path d="M49.9685 10.9685C45.1826 8.15737 40.9029 4.7346 36.7562 1.10004C36.3877 0.776943 36.0052 0.469516 35.4438 0C35.4438 10.9669 35.4438 21.6637 35.4438 32.5841C34.8295 32.2264 34.4643 32.0108 34.0958 31.8001C28.3974 28.5389 21.6319 29.5444 16.8 34.6502C13.139 38.5192 11.9666 45.2291 15.3137 50.8477C18.4787 56.1604 24.7542 58.7176 30.7979 57.1383C36.6876 55.599 40.9845 50.2128 41.0337 44.0718C41.1023 35.4671 41.0531 26.8613 41.0548 18.256C41.0548 17.7579 41.0548 17.2597 41.0548 16.6157C45.6353 17.833 49.5578 19.7375 52.349 23.4672C55.1558 27.2168 55.8485 31.5197 55.5075 36.1203C56.2688 34.3573 56.9804 32.6057 57.4601 30.7919C59.6305 22.5854 56.8545 15.0137 49.9685 10.9685ZM28.3228 54.4698C33.7128 53.1779 36.7454 50.0178 37.839 44.778C38.2971 49.4315 33.3583 54.721 28.3228 54.4698ZM16.9956 41.1369C16.6936 37.4597 21.8042 32.9688 25.9407 33.2751C21.5081 34.3552 18.583 36.8827 16.9956 41.1369ZM25.8148 35.6097C22.096 36.5525 19.9748 39.019 18.9834 42.6849C18.2232 39.7176 22.566 35.3509 25.8148 35.6097ZM21.1402 43.0291C21.5384 39.9132 23.2419 38.0302 26.1125 37.8406C23.5926 39.0514 21.7513 40.4745 21.1402 43.0291ZM24.4911 43.92C24.4511 42.1889 25.5311 40.9559 27.1239 40.916C28.6221 40.8781 29.9296 42.2143 29.9529 43.8071C29.975 45.3458 28.7534 46.5766 27.2071 46.5745C25.6975 46.5718 24.5262 45.4269 24.4911 43.92ZM33.2141 44.5521C33.5588 47.319 30.934 50.0188 28.2115 49.8481C30.7676 49.0204 32.4193 47.3136 33.2141 44.5521ZM35.6454 45.247C36.0922 47.6183 32.65 52.3437 28.8269 52.247C30.1101 51.4231 31.7931 50.7018 32.9677 49.4888C34.1666 48.251 34.8657 46.5296 35.6454 45.247Z" fill="#AFD8FF"/>
<path d="M41.6121 54.0479C41.3749 53.8664 41.0356 53.9123 40.8546 54.1495C37.5826 58.4362 32.6174 60.8951 27.2312 60.8951C17.7875 60.8951 10.104 53.2115 10.104 43.7677C10.104 35.6876 15.837 28.6346 23.7361 26.997C24.0278 26.9365 24.2159 26.6507 24.1553 26.3584C24.0948 26.0661 23.809 25.8786 23.5167 25.9391C19.4786 26.776 15.803 29.0009 13.1675 32.2027C11.8546 33.7977 10.8307 35.586 10.1245 37.5176C9.39408 39.5172 9.02344 41.6201 9.02344 43.7677C9.02344 48.6309 10.9177 53.2034 14.3566 56.6424C17.7956 60.0814 22.3681 61.9757 27.2312 61.9757C30.1196 61.9757 32.881 61.3192 35.4404 60.0241C37.8803 58.7895 40.0496 56.9849 41.7137 54.8049C41.8947 54.5677 41.8493 54.2289 41.6121 54.0479Z" fill="#AFD8FF"/>
<path d="M5.29445 43.7663C5.29445 36.1368 9.16617 29.1707 15.6507 25.132C15.9041 24.9743 15.9814 24.6409 15.8236 24.3875C15.6659 24.1341 15.333 24.0569 15.0796 24.2146C11.8201 26.245 9.09539 29.0816 7.20113 32.419C5.2469 35.8612 4.21387 39.7848 4.21387 43.7663C4.21387 46.873 4.82277 49.8873 6.0233 52.7254C7.18222 55.4663 8.842 57.9274 10.9556 60.041C13.0692 62.1546 15.5302 63.8144 18.2711 64.9734C21.1093 66.1739 24.1236 66.7828 27.2302 66.7828C33.9936 66.7828 40.3874 63.8247 44.7729 58.6676C44.9658 58.4401 44.9382 58.0992 44.7113 57.9058C44.4839 57.7123 44.1429 57.7399 43.9495 57.9674C39.7698 62.883 33.6764 65.7022 27.2302 65.7022C15.1353 65.7022 5.29445 55.8618 5.29445 43.7663Z" fill="#AFD8FF"/>
<path d="M53.3942 49.1013C53.1024 49.0359 52.8139 49.2191 52.7491 49.5103C50.1 61.3357 39.3683 69.9194 27.2306 69.9194C12.8119 69.9194 1.08058 58.1885 1.08058 43.7691C1.08058 30.7367 10.8042 19.5963 23.6977 17.855C23.9938 17.8155 24.2012 17.5432 24.1612 17.2477C24.1213 16.9516 23.849 16.7447 23.5534 16.7841C17.0813 17.6583 11.1278 20.8525 6.78929 25.7779C2.41131 30.7486 0 37.1381 0 43.7691C0 47.4448 0.720207 51.0112 2.14063 54.3686C3.51189 57.6115 5.4753 60.5231 7.97576 63.0241C10.4768 65.5246 13.3884 67.4881 16.6312 68.8593C19.9886 70.2798 23.555 71 27.2306 71C30.4065 71 33.5174 70.4581 36.4777 69.3894C39.3385 68.3569 41.9919 66.8581 44.3654 64.9346C46.7173 63.0279 48.7234 60.7619 50.3275 58.1993C51.9624 55.5886 53.1316 52.7445 53.8032 49.7464C53.8686 49.4552 53.6854 49.1661 53.3942 49.1013Z" fill="#AFD8FF"/>
<path d="M78.9986 25.655C79.9153 24.225 81.1803 23.07 82.7936 22.19C84.4069 21.31 86.2953 20.87 88.4586 20.87C90.9886 20.87 93.2803 21.5117 95.3336 22.795C97.3869 24.0783 99.0003 25.9117 100.174 28.295C101.384 30.6783 101.989 33.4467 101.989 36.6C101.989 39.7533 101.384 42.54 100.174 44.96C99.0003 47.3433 97.3869 49.195 95.3336 50.515C93.2803 51.7983 90.9886 52.44 88.4586 52.44C86.3319 52.44 84.4436 52 82.7936 51.12C81.1803 50.24 79.9153 49.1033 78.9986 47.71V66.63H69.5936V21.31H78.9986V25.655ZM92.4186 36.6C92.4186 34.2533 91.7586 32.42 90.4386 31.1C89.1553 29.7433 87.5603 29.065 85.6536 29.065C83.7836 29.065 82.1886 29.7433 80.8686 31.1C79.5853 32.4567 78.9436 34.3083 78.9436 36.655C78.9436 39.0017 79.5853 40.8533 80.8686 42.21C82.1886 43.5667 83.7836 44.245 85.6536 44.245C87.5236 44.245 89.1186 43.5667 90.4386 42.21C91.7586 40.8167 92.4186 38.9467 92.4186 36.6ZM116.328 11.3V52H106.923V11.3H116.328ZM121.273 36.6C121.273 33.4467 121.86 30.6783 123.033 28.295C124.243 25.9117 125.875 24.0783 127.928 22.795C129.982 21.5117 132.273 20.87 134.803 20.87C136.967 20.87 138.855 21.31 140.468 22.19C142.118 23.07 143.383 24.225 144.263 25.655V21.31H153.668V52H144.263V47.655C143.347 49.085 142.063 50.24 140.413 51.12C138.8 52 136.912 52.44 134.748 52.44C132.255 52.44 129.982 51.7983 127.928 50.515C125.875 49.195 124.243 47.3433 123.033 44.96C121.86 42.54 121.273 39.7533 121.273 36.6ZM144.263 36.655C144.263 34.3083 143.603 32.4567 142.283 31.1C141 29.7433 139.423 29.065 137.553 29.065C135.683 29.065 134.088 29.7433 132.768 31.1C131.485 32.42 130.843 34.2533 130.843 36.6C130.843 38.9467 131.485 40.8167 132.768 42.21C134.088 43.5667 135.683 44.245 137.553 44.245C139.423 44.245 141 43.5667 142.283 42.21C143.603 40.8533 144.263 39.0017 144.263 36.655ZM191.823 21.31L172.573 66.575H162.453L169.493 50.955L157.007 21.31H167.513L174.608 40.505L181.648 21.31H191.823ZM204.023 44.245H217.333V52H193.518V44.52L206.278 29.065H193.628V21.31H217.058V28.79L204.023 44.245ZM220.639 36.6C220.639 33.4467 221.225 30.6783 222.399 28.295C223.609 25.9117 225.24 24.0783 227.294 22.795C229.347 21.5117 231.639 20.87 234.169 20.87C236.332 20.87 238.22 21.31 239.834 22.19C241.484 23.07 242.749 24.225 243.629 25.655V21.31H253.034V52H243.629V47.655C242.712 49.085 241.429 50.24 239.779 51.12C238.165 52 236.277 52.44 234.114 52.44C231.62 52.44 229.347 51.7983 227.294 50.515C225.24 49.195 223.609 47.3433 222.399 44.96C221.225 42.54 220.639 39.7533 220.639 36.6ZM243.629 36.655C243.629 34.3083 242.969 32.4567 241.649 31.1C240.365 29.7433 238.789 29.065 236.919 29.065C235.049 29.065 233.454 29.7433 232.134 31.1C230.85 32.42 230.209 34.2533 230.209 36.6C230.209 38.9467 230.85 40.8167 232.134 42.21C233.454 43.5667 235.049 44.245 236.919 44.245C238.789 44.245 240.365 43.5667 241.649 42.21C242.969 40.8533 243.629 39.0017 243.629 36.655Z" fill="#AFD8FF"/>
</g>
<defs>
<clipPath id="clip0_2118_55">
<rect width="257" height="71" fill="white"/>
</clipPath>
</defs>
</svg>
